<?xml version="1.0" encoding="utf-8"?>
<!-- Generator: Adobe Illustrator 16.0.0, SVG Export Plug-In . SVG Version: 6.00 Build 0)  -->
<!DOCTYPE svg PUBLIC "-//W3C//DTD SVG 1.1//EN" "http://www.w3.org/Graphics/SVG/1.1/DTD/svg11.dtd">
<svg version="1.1" xmlns="http://www.w3.org/2000/svg" xmlns:xlink="http://www.w3.org/1999/xlink" x="0px" y="0px" width="256px"
	 height="256px" viewBox="0 0 256 256" enable-background="new 0 0 256 256" xml:space="preserve">
<g id="round_x5F_white" display="none">
	<g id="_x33_0" display="inline">
		<g>
			<path fill-rule="evenodd" clip-rule="evenodd" fill="#FFFFFF" d="M128,0C57.308,0,0,57.308,0,128s57.308,128,128,128
				s128-57.308,128-128S198.692,0,128,0z M103.48,48.635l-8.92,2.974l-2.973-14.867L103.48,48.635z M44.014,203.251
				c0,0,32.707-29.734,65.414-29.734c14.068,0,28.129,5.504,39.595,11.773l-21.422-51.414c-3.16,0.673-6.653,0.921-10.414,0.424
				c-10.213-28.683-12.8-80.281-12.8-80.281c-14.007,4.988,5.796,82.775,5.796,82.775s-11.452,12.157-28.009,9.974
				c-10.213-28.685,8.206-87.761,22.213-92.749c-35.016,12.469-35.599,77.313-30.494,91.655c0,0-12.73,8.571-29.287,6.388
				c-10.212-28.683,17.762-83.083,59.781-98.043c42.017-14.957,98.075,9.524,108.287,38.207
				c-11.452,12.157-26.734,13.557-26.734,13.557c-5.107-14.341-46.54-64.229-81.553-51.764
				c14.005-4.985,65.614,29.159,75.827,57.845c-11.455,12.157-28.012,9.971-28.012,9.971s-33.811-72.801-47.815-67.815
				c0,0,30.6,41.627,40.812,70.31c0,0-2.833,3.005-7.714,5.759l23.512,55.575c1.637-0.159,3.281-0.252,4.926-0.252
				c23.787,0,47.574,17.841,47.574,17.841H44.014z"/>
		</g>
	</g>
</g>
<g id="round_x5F_blue">
	<g id="_x33_0_8_">
		<g>
			<path fill-rule="evenodd" clip-rule="evenodd" fill="#00A3F5" d="M128,0C57.308,0,0,57.308,0,128s57.308,128,128,128
				s128-57.308,128-128S198.692,0,128,0z M103.48,48.635l-8.92,2.974l-2.973-14.867L103.48,48.635z M44.014,203.251
				c0,0,32.707-29.734,65.414-29.734c14.068,0,28.129,5.504,39.595,11.773l-21.422-51.414c-3.16,0.673-6.653,0.921-10.414,0.424
				c-10.213-28.683-12.8-80.281-12.8-80.281c-14.007,4.988,5.796,82.775,5.796,82.775s-11.452,12.157-28.009,9.974
				c-10.213-28.685,8.206-87.761,22.213-92.749c-35.016,12.469-35.599,77.313-30.494,91.655c0,0-12.73,8.571-29.287,6.388
				c-10.212-28.683,17.762-83.083,59.781-98.043c42.017-14.957,98.075,9.524,108.287,38.207
				c-11.452,12.157-26.734,13.557-26.734,13.557c-5.107-14.341-46.54-64.229-81.553-51.764
				c14.005-4.985,65.614,29.159,75.827,57.845c-11.455,12.157-28.012,9.971-28.012,9.971s-33.811-72.801-47.815-67.815
				c0,0,30.6,41.627,40.812,70.31c0,0-2.833,3.005-7.714,5.759l23.512,55.575c1.637-0.159,3.281-0.252,4.926-0.252
				c23.787,0,47.574,17.841,47.574,17.841H44.014z"/>
		</g>
	</g>
</g>
<g id="round_x5F_black" display="none">
	<g id="_x33_0_10_" display="inline">
		<g>
			<path fill-rule="evenodd" clip-rule="evenodd" d="M128,0C57.308,0,0,57.308,0,128s57.308,128,128,128s128-57.308,128-128
				S198.692,0,128,0z M103.48,48.635l-8.92,2.974l-2.973-14.867L103.48,48.635z M44.014,203.251c0,0,32.707-29.734,65.414-29.734
				c14.068,0,28.129,5.504,39.595,11.773l-21.422-51.414c-3.16,0.673-6.653,0.921-10.414,0.424
				c-10.213-28.683-12.8-80.281-12.8-80.281c-14.007,4.988,5.796,82.775,5.796,82.775s-11.452,12.157-28.009,9.974
				c-10.213-28.685,8.206-87.761,22.213-92.749c-35.016,12.469-35.599,77.313-30.494,91.655c0,0-12.73,8.571-29.287,6.388
				c-10.212-28.683,17.762-83.083,59.781-98.043c42.017-14.957,98.075,9.524,108.287,38.207
				c-11.452,12.157-26.734,13.557-26.734,13.557c-5.107-14.341-46.54-64.229-81.553-51.764
				c14.005-4.985,65.614,29.159,75.827,57.845c-11.455,12.157-28.012,9.971-28.012,9.971s-33.811-72.801-47.815-67.815
				c0,0,30.6,41.627,40.812,70.31c0,0-2.833,3.005-7.714,5.759l23.512,55.575c1.637-0.159,3.281-0.252,4.926-0.252
				c23.787,0,47.574,17.841,47.574,17.841H44.014z"/>
		</g>
	</g>
</g>
<g id="base_x5F_white" display="none">
	<g id="_x33_0_2_" display="inline">
		<g>
			<path fill-rule="evenodd" clip-rule="evenodd" fill="#FFFFFF" d="M44.018,203.256H213.5c0,0-23.787-17.842-47.574-17.842
				c-1.645,0-3.289,0.093-4.926,0.252l-23.512-55.575c4.881-2.754,7.714-5.759,7.714-5.759
				c-10.212-28.683-40.812-70.31-40.812-70.31s2.587,51.599,12.8,80.281c3.761,0.497,7.255,0.249,10.414-0.424l21.423,51.415
				c-11.466-6.27-25.527-11.773-39.596-11.773C76.725,173.521,44.018,203.256,44.018,203.256z M44.609,152.066
				c16.557,2.184,29.287-6.389,29.287-6.389c-5.104-14.342-4.521-79.187,30.494-91.655C62.371,68.982,34.397,123.383,44.609,152.066
				z M82.178,146.771c16.557,2.184,28.009-9.974,28.009-9.974s-19.803-77.787-5.796-82.775
				C90.384,59.011,71.965,118.087,82.178,146.771z M185.943,105.786c0,0,15.282-1.399,26.734-13.557
				c-10.212-28.683-66.271-53.164-108.287-38.207C139.403,41.557,180.836,91.445,185.943,105.786z M152.206,121.838
				c0,0,16.557,2.187,28.012-9.971c-10.213-28.686-61.822-62.83-75.827-57.845C118.396,49.037,152.206,121.838,152.206,121.838z
				 M103.484,48.639L91.592,36.745l2.973,14.867L103.484,48.639z"/>
		</g>
	</g>
</g>
<g id="base_x5F_blue" display="none">
	<g id="_x33_0_4_" display="inline">
		<g>
			<path fill-rule="evenodd" clip-rule="evenodd" fill="#00A3F5" d="M44.018,203.256H213.5c0,0-23.787-17.842-47.574-17.842
				c-1.645,0-3.289,0.093-4.926,0.252l-23.512-55.575c4.881-2.754,7.714-5.759,7.714-5.759
				c-10.212-28.683-40.812-70.31-40.812-70.31s2.587,51.599,12.8,80.281c3.761,0.497,7.255,0.249,10.414-0.424l21.423,51.415
				c-11.466-6.27-25.527-11.773-39.596-11.773C76.725,173.521,44.018,203.256,44.018,203.256z M44.609,152.066
				c16.557,2.184,29.287-6.389,29.287-6.389c-5.104-14.342-4.521-79.187,30.494-91.655C62.371,68.982,34.397,123.383,44.609,152.066
				z M82.178,146.771c16.557,2.184,28.009-9.974,28.009-9.974s-19.803-77.787-5.796-82.775
				C90.384,59.011,71.965,118.087,82.178,146.771z M185.943,105.786c0,0,15.282-1.399,26.734-13.557
				c-10.212-28.683-66.271-53.164-108.287-38.207C139.403,41.557,180.836,91.445,185.943,105.786z M152.206,121.838
				c0,0,16.557,2.187,28.012-9.971c-10.213-28.686-61.822-62.83-75.827-57.845C118.396,49.037,152.206,121.838,152.206,121.838z
				 M103.484,48.639L91.592,36.745l2.973,14.867L103.484,48.639z"/>
		</g>
	</g>
</g>
<g id="base_x5F_black" display="none">
	<g id="_x33_0_6_" display="inline">
		<g>
			<path fill-rule="evenodd" clip-rule="evenodd" d="M165.926,185.414c-1.645,0-3.289,0.093-4.926,0.252l-23.512-55.575
				c4.881-2.754,7.714-5.759,7.714-5.759c-10.212-28.683-40.812-70.31-40.812-70.31s2.587,51.599,12.8,80.281
				c3.761,0.497,7.255,0.249,10.414-0.424l21.423,51.415c-11.466-6.27-25.527-11.773-39.596-11.773
				c-32.707,0-65.414,29.734-65.414,29.734h74.334h56.494H213.5C213.5,203.256,189.713,185.414,165.926,185.414z M44.609,152.066
				c16.557,2.184,29.287-6.389,29.287-6.389c-5.104-14.342-4.521-79.187,30.494-91.655C62.371,68.982,34.397,123.383,44.609,152.066
				z M82.178,146.771c16.557,2.184,28.009-9.974,28.009-9.974s-19.803-77.787-5.796-82.775
				C90.384,59.011,71.965,118.087,82.178,146.771z M185.943,105.786c0,0,15.282-1.399,26.734-13.557
				c-10.212-28.683-66.271-53.164-108.287-38.207C139.403,41.557,180.836,91.445,185.943,105.786z M152.206,121.838
				c0,0,16.557,2.187,28.012-9.971c-10.213-28.686-61.822-62.83-75.827-57.845C118.396,49.037,152.206,121.838,152.206,121.838z
				 M103.484,48.639L91.592,36.745l2.973,14.867L103.484,48.639z"/>
		</g>
	</g>
</g>
</svg>
